<?xml version="1.0" encoding="utf-8"?>
<!-- Generator: Adobe Illustrator 23.0.2, SVG Export Plug-In . SVG Version: 6.00 Build 0)  -->
<svg version="1.1" id="Layer_1" xmlns="http://www.w3.org/2000/svg" xmlns:xlink="http://www.w3.org/1999/xlink" x="0px" y="0px"
	 viewBox="0 0 540.4 127.3" style="enable-background:new 0 0 540.4 127.3;" xml:space="preserve">
<style type="text/css">
	.st0{fill:#346094;}
	.st1{font-family:'Whitney-Book';}
	.st2{font-size:52.0648px;}
	.st3{fill:#00B0B9;}
	.st4{fill:#FFFFFF;}
	.st5{font-size:38.4204px;}
	.st6{letter-spacing:10;}
</style>
<g>
	<path class="st0" d="M151.4,55.3h-10.6V22h10.6c11.6,0,17.6,6.8,17.6,16.6C168.9,48.5,162.7,55.3,151.4,55.3z M151.3,27.2h-4.1V50
		h4.1c7,0,11.2-3.6,11.2-11.4C162.4,31,158,27.2,151.3,27.2z"/>
	<path class="st0" d="M177.4,28.1c-1.9,0-3.5-1.4-3.5-3.3c0-2,1.5-3.4,3.5-3.4c1.9,0,3.4,1.4,3.4,3.4
		C180.8,26.7,179.3,28.1,177.4,28.1z M174.4,55.3V32h5.8v23.3H174.4z"/>
	<path class="st0" d="M195,64.1c-6.3,0-11.1-1.9-11.1-5.8c0-2.2,1.5-3.9,4.4-5.5c-0.9-0.7-1.4-1.6-1.4-2.6c0-1.3,1-2.6,2.9-3.7
		c-2.7-1.3-4.4-3.8-4.4-6.9c0-5.1,4.1-8.2,9.4-8.2c2.7,0,4.9,0.8,6.6,2.2l5.7-2l0.8,4.6l-4.2,0.3c0.4,0.9,0.6,2,0.6,3
		c0,5-4.3,8-9.3,8c-0.7,0-1.4,0-1.9-0.1c-0.6,0.4-0.9,0.8-0.9,1.2c0,0.8,0.7,1,4.3,1.5l3,0.3c4.8,0.7,7.8,2.2,7.8,5.7
		C207.2,61.3,201.7,64.1,195,64.1z M191.4,54.2c-1.7,1.2-2.5,2.3-2.5,3.5c0,1.7,2.1,3,6.5,3c4.1,0,6.5-1.4,6.5-3.1
		c0-1.3-1-2-3.9-2.4l-3.1-0.4C193.3,54.5,192.5,54.4,191.4,54.2z M194.9,35.2c-2.6,0-4.1,2-4.1,4.5c0,2.4,1.5,4.2,4.1,4.2
		c2.6,0,4.1-1.9,4.1-4.4C199,37.1,197.4,35.2,194.9,35.2z"/>
	<path class="st0" d="M214.6,28.1c-1.9,0-3.5-1.4-3.5-3.3c0-2,1.5-3.4,3.5-3.4c1.9,0,3.4,1.4,3.4,3.4
		C218,26.7,216.5,28.1,214.6,28.1z M211.6,55.3V32h5.8v23.3H211.6z"/>
	<path class="st0" d="M232.4,55.7c-4.6,0-7.7-1.7-7.7-7v-12h-3.3V32h3.3v-7.4l5.7-0.9V32h4.8l0.7,4.7h-5.5v11c0,1.9,0.9,2.9,3.1,2.9
		c0.7,0,1.3,0,1.8-0.2l0.7,4.9C235.2,55.5,234.1,55.7,232.4,55.7z"/>
	<path class="st0" d="M254,55.3l-0.5-3c-1.9,2-4.3,3.5-7.8,3.5c-4,0-6.6-2.4-6.6-6.5c0-5.6,4.6-8.1,14-9v-0.7c0-2.5-1.4-3.5-4-3.5
		c-2.7,0-5.3,0.8-7.8,1.9l-0.7-4.6c2.7-1.1,5.5-1.9,9.3-1.9c6,0,9,2.2,9,7.8v16H254z M253.2,43.6c-6.7,0.8-8.3,2.8-8.3,5
		c0,1.7,1.1,2.7,2.8,2.7c2,0,3.9-0.9,5.5-2.5V43.6z"/>
	<path class="st0" d="M264.9,55.3V21.4l5.8-0.9v34.8H264.9z"/>
	<path class="st0" d="M302.2,55.9c-9.6,0-15.7-6.8-15.7-17.2c0-10.3,6.2-17.3,15.9-17.3c3.8,0,6.7,0.9,9.1,2.4l-0.9,6
		c-2.2-1.6-4.7-2.9-8-2.9c-6,0-9.6,4.5-9.6,11.7c0,7.2,3.8,11.7,9.7,11.7c3.1,0,5.9-1.2,8.4-2.9L312,53
		C309.4,54.7,306,55.9,302.2,55.9z"/>
	<path class="st0" d="M326.3,55.8c-6.3,0-10.9-4.5-10.9-12.1c0-7.6,4.6-12.2,11-12.2c6.4,0,11,4.6,11,12.2
		C337.3,51.2,332.6,55.8,326.3,55.8z M326.3,36.2c-3.4,0-5.3,3.1-5.3,7.4c0,4.2,1.9,7.4,5.3,7.4c3.6,0,5.4-3,5.4-7.4
		C331.7,39.4,329.7,36.2,326.3,36.2z"/>
	<path class="st0" d="M342.2,55.3V21.4l5.8-0.9v34.8H342.2z"/>
	<path class="st0" d="M354.4,55.3V21.4l5.8-0.9v34.8H354.4z"/>
	<path class="st0" d="M376.5,55.8c-6.5,0-11.4-3.7-11.4-12.1c0-7.6,4.5-12.2,10.6-12.2c7,0,10.1,5.3,10.1,11.9c0,0.5,0,1.1,0,1.4
		h-15c0.3,4.6,2.7,6.5,6.3,6.5c3,0,5.5-1.1,8-2.9l0.7,4.5C383.3,54.6,380.2,55.8,376.5,55.8z M370.9,41.1h9.3
		c-0.4-3.6-1.8-5.6-4.6-5.6C373.2,35.5,371.3,37.4,370.9,41.1z"/>
	<path class="st0" d="M400.4,55.7c-6.5,0-11-4.3-11-12c0-8.1,5.1-12.3,11.4-12.3c3,0,5.5,0.9,7.1,2l-0.8,5.2c-1.9-1.4-3.7-2.2-6-2.2
		c-3.4,0-5.8,2.5-5.8,7.1c0,4.8,2.7,7.1,6,7.1c2,0,4-0.6,6.1-2.2l0.8,5C405.9,55,403.4,55.7,400.4,55.7z"/>
	<path class="st0" d="M421.6,55.7c-4.6,0-7.7-1.7-7.7-7v-12h-3.3V32h3.3v-7.4l5.7-0.9V32h4.8l0.7,4.7h-5.5v11c0,1.9,0.9,2.9,3.1,2.9
		c0.7,0,1.3,0,1.8-0.2l0.7,4.9C424.3,55.5,423.3,55.7,421.6,55.7z"/>
	<path class="st0" d="M432.8,28.1c-1.9,0-3.5-1.4-3.5-3.3c0-2,1.5-3.4,3.5-3.4c1.9,0,3.4,1.4,3.4,3.4
		C436.2,26.7,434.7,28.1,432.8,28.1z M429.8,55.3V32h5.8v23.3H429.8z"/>
	<path class="st0" d="M451.4,55.8c-6.3,0-10.9-4.5-10.9-12.1c0-7.6,4.6-12.2,11-12.2c6.4,0,11,4.6,11,12.2
		C462.5,51.2,457.8,55.8,451.4,55.8z M451.4,36.2c-3.4,0-5.3,3.1-5.3,7.4c0,4.2,1.9,7.4,5.3,7.4c3.6,0,5.4-3,5.4-7.4
		C456.8,39.4,454.9,36.2,451.4,36.2z"/>
	<path class="st0" d="M481.3,55.3V40c0-2-0.9-3.4-3-3.4c-1.8,0-3.6,1.2-5.3,2.9v15.7h-5.8V32h4.9l0.5,3.3c2.2-2.1,4.6-3.8,7.8-3.8
		c4.3,0,6.7,2.7,6.7,7v16.8H481.3z"/>
	<path class="st0" d="M500.7,55.8c-3.4,0-6.8-1.1-9.1-2.3l0.8-4.8c2.5,1.6,5.6,2.7,8.5,2.7c2.5,0,3.9-0.9,3.9-2.5
		c0-1.6-1-2.3-4.7-3.2c-5.6-1.4-8-3.1-8-7.3c0-4.1,3.2-6.9,8.6-6.9c3,0,5.8,0.6,8.2,1.6L508,38c-2.3-1.3-5.1-2.1-7.4-2.1
		c-2.2,0-3.2,0.9-3.2,2.1c0,1.3,0.9,2,4.3,2.9c6,1.5,8.4,3.2,8.4,7.6C510.1,53,506.8,55.8,500.7,55.8z"/>
</g>
<text transform="matrix(1 0 0 1 123.132 106.4282)" class="st0 st1 st2"> </text>
<g>
	<g>
		<path class="st3" d="M166.4,106.2l-5.6-5.6c-3,3.8-6.9,5.9-11.6,5.9c-6.9,0-11.2-3.8-11.2-9.5c0-5.3,3.5-8.5,8.4-10.7
			c-2.5-2.6-3.7-4.7-3.7-8c0-4.5,3.5-8.2,9.2-8.2c3.1,0,5.9,0.8,8.3,2.2l-0.7,3.5c-2.7-1.7-5.3-2.7-7.8-2.7c-3.6,0-5.6,2.1-5.6,4.9
			c0,2.5,1.1,4.3,3.7,7l10.3,10.4c1.3-2.7,2.3-6,2.9-10.1l3.2,0.7c-0.8,4.7-2.1,8.6-3.8,11.8l7.4,7.5L166.4,106.2z M158.6,98.4
			l-10.1-10c-4.4,1.8-6.9,4.6-6.9,8.3c0,3.9,3.1,6.8,7.6,6.8C152.8,103.5,156.1,101.9,158.6,98.4z"/>
	</g>
	<g>
		<path class="st0" d="M189.5,72.5h6.8l12.2,32.6l-6.4,1.2l-3.2-8.8h-12.6l-2.9,8.4H177L189.5,72.5z M188,92.3h9.1l-4.5-12.9
			L188,92.3z"/>
		<path class="st0" d="M218.2,92.6v13.4h-5.8V82.6h4.9l0.7,4.7c1.5-2.7,3.9-5,7.5-5.2l0.9,5.7C222.9,88.1,219.9,90.1,218.2,92.6z"/>
		<path class="st0" d="M239.4,106.4c-6.5,0-11-4.3-11-12c0-8.1,5.1-12.3,11.4-12.3c3,0,5.5,0.9,7.1,2l-0.8,5.2
			c-1.9-1.4-3.7-2.2-6-2.2c-3.4,0-5.8,2.5-5.8,7.1c0,4.8,2.7,7.1,6,7.1c2,0,4-0.6,6.1-2.2l0.8,5
			C244.9,105.6,242.5,106.4,239.4,106.4z"/>
		<path class="st0" d="M265.9,105.9V90.7c0-2-0.9-3.4-3-3.4c-1.8,0-3.6,1.2-5.3,2.9v15.7h-5.8V72l5.8-0.9v14.5
			c1.9-1.8,4.3-3.4,7.4-3.4c4.3,0,6.7,2.7,6.7,7v16.8H265.9z"/>
		<path class="st0" d="M280.6,78.7c-1.9,0-3.5-1.4-3.5-3.3c0-2,1.5-3.4,3.5-3.4c1.9,0,3.4,1.4,3.4,3.4
			C284,77.4,282.5,78.7,280.6,78.7z M277.7,105.9V82.6h5.8v23.3H277.7z"/>
		<path class="st0" d="M301.3,106.1h-5.7l-8.1-23l6.1-0.8l5.1,16.5l5-16.2h5.8L301.3,106.1z"/>
		<path class="st0" d="M322.7,106.4c-6.5,0-11.4-3.7-11.4-12.1c0-7.6,4.5-12.2,10.6-12.2c7,0,10.1,5.3,10.1,11.9c0,0.5,0,1.1,0,1.4
			h-15c0.3,4.6,2.7,6.5,6.3,6.5c3,0,5.5-1.1,8-2.9l0.7,4.5C329.5,105.3,326.4,106.4,322.7,106.4z M317.1,91.8h9.3
			c-0.4-3.6-1.8-5.6-4.6-5.6C319.4,86.1,317.5,88,317.1,91.8z"/>
		<path class="st0" d="M344.6,106.4c-3.4,0-6.8-1.1-9.1-2.3l0.8-4.8c2.5,1.6,5.6,2.7,8.5,2.7c2.5,0,3.9-0.9,3.9-2.5
			c0-1.6-1-2.3-4.7-3.2c-5.6-1.4-8-3.1-8-7.3c0-4.1,3.2-6.9,8.6-6.9c3,0,5.8,0.6,8.2,1.6l-0.8,4.8c-2.3-1.3-5.1-2.1-7.4-2.1
			c-2.2,0-3.2,0.9-3.2,2.1c0,1.3,0.9,2,4.3,2.9c6,1.5,8.4,3.2,8.4,7.6C354,103.7,350.7,106.4,344.6,106.4z"/>
	</g>
</g>
<g>
	<rect x="28.6" y="21.9" class="st3" width="84.6" height="84.6"/>
	<g>
		<path class="st4" d="M53.3,59.9h-8.4V33.4h8.4c9.2,0,14,5.4,14,13.2C67.3,54.5,62.3,59.9,53.3,59.9z M53.3,37.6H50v18.1h3.2
			c5.6,0,8.9-2.8,8.9-9.1C62.1,40.5,58.6,37.6,53.3,37.6z"/>
		<path class="st4" d="M88.8,60.3c-7.7,0-12.5-5.4-12.5-13.7c0-8.2,5-13.8,12.7-13.8c3,0,5.3,0.7,7.3,1.9l-0.7,4.8
			c-1.7-1.3-3.8-2.3-6.3-2.3c-4.8,0-7.7,3.6-7.7,9.3c0,5.8,3,9.3,7.8,9.3c2.5,0,4.7-0.9,6.7-2.3l0.7,4.5
			C94.6,59.4,91.8,60.3,88.8,60.3z"/>
	</g>
	<text transform="matrix(1 0 0 1 42.0794 95.8734)"><tspan x="0" y="0" class="st4 st1 st5 st6"> </tspan><tspan x="19.4" y="0" class="st4 st1 st5"> </tspan></text>
	<g>
		<path class="st4" d="M65.3,96.1L61,91.8c-2.3,3-5.4,4.5-8.9,4.5c-5.3,0-8.6-2.9-8.6-7.3c0-4.1,2.7-6.5,6.5-8.3
			c-1.9-2-2.9-3.7-2.9-6.1c0-3.5,2.7-6.3,7.1-6.3c2.4,0,4.5,0.6,6.4,1.7L60,72.7c-2-1.3-4.1-2-6-2c-2.8,0-4.3,1.7-4.3,3.8
			c0,1.9,0.8,3.3,2.9,5.4l8,8c1-2,1.8-4.6,2.2-7.8l2.5,0.5c-0.6,3.6-1.6,6.7-3,9.1l5.7,5.8L65.3,96.1z M59.3,90.1l-7.8-7.8
			c-3.4,1.4-5.3,3.6-5.3,6.4c0,3,2.4,5.2,5.9,5.2C54.8,94,57.4,92.8,59.3,90.1z"/>
	</g>
	<g>
		<path class="st4" d="M84.9,69.3h5.4l9.7,26l-5.1,0.9l-2.5-7h-10L80,95.9h-5.1L84.9,69.3z M83.7,85h7.2l-3.6-10.3L83.7,85z"/>
	</g>
</g>
</svg>
