<?xml version="1.0" encoding="utf-8"?>
<!-- Generator: Adobe Illustrator 23.0.2, SVG Export Plug-In . SVG Version: 6.00 Build 0)  -->
<svg version="1.1" id="Layer_1" xmlns="http://www.w3.org/2000/svg" xmlns:xlink="http://www.w3.org/1999/xlink" x="0px" y="0px"
	 viewBox="0 0 800 127.3" style="enable-background:new 0 0 800 127.3;" xml:space="preserve">
<style type="text/css">
	.st0{fill:#346094;}
	.st1{font-family:'Whitney-Book';}
	.st2{font-size:52.0648px;}
	.st3{fill:#00B0B9;}
	.st4{fill:#FFFFFF;}
	.st5{font-size:38.4204px;}
	.st6{letter-spacing:10;}
</style>
<g>
	<g>
		<g>
			<path class="st0" d="M141.7,81.3h-11.4V45.3h11.4c12.5,0,19,7.3,19,17.9C160.6,73.9,153.9,81.3,141.7,81.3z M141.6,51h-4.5v24.6
				h4.4c7.5,0,12.1-3.9,12.1-12.3C153.6,55,148.8,51,141.6,51z"/>
			<path class="st0" d="M169.7,51.9c-2.1,0-3.7-1.5-3.7-3.5c0-2.1,1.7-3.6,3.7-3.6c2,0,3.7,1.5,3.7,3.6
				C173.4,50.4,171.8,51.9,169.7,51.9z M166.6,81.3V56.1h6.2v25.1H166.6z"/>
			<path class="st0" d="M188.7,90.7c-6.8,0-12-2.1-12-6.2c0-2.4,1.6-4.2,4.7-5.9c-1-0.8-1.5-1.7-1.5-2.8c0-1.4,1.1-2.8,3.2-4
				c-3-1.4-4.7-4.1-4.7-7.4c0-5.5,4.5-8.9,10.1-8.9c2.9,0,5.3,0.8,7.1,2.3l6.1-2.2l0.8,5l-4.6,0.3c0.4,1,0.7,2.1,0.7,3.3
				c0,5.4-4.6,8.6-10,8.6c-0.7,0-1.5,0-2.1-0.1c-0.6,0.4-1,0.9-1,1.3c0,0.8,0.8,1,4.7,1.6l3.2,0.3c5.2,0.7,8.4,2.3,8.4,6.2
				C202,87.7,196,90.7,188.7,90.7z M184.8,80.1c-1.8,1.2-2.7,2.4-2.7,3.7c0,1.9,2.2,3.2,7,3.2c4.5,0,7-1.5,7-3.4
				c0-1.4-1.1-2.1-4.2-2.6l-3.4-0.4C186.9,80.4,186,80.3,184.8,80.1z M188.6,59.6c-2.8,0-4.4,2.1-4.4,4.9c0,2.6,1.7,4.6,4.4,4.6
				c2.8,0,4.4-2,4.4-4.7C193.1,61.6,191.3,59.6,188.6,59.6z"/>
			<path class="st0" d="M209.9,51.9c-2.1,0-3.7-1.5-3.7-3.5c0-2.1,1.7-3.6,3.7-3.6c2,0,3.7,1.5,3.7,3.6
				C213.6,50.4,211.9,51.9,209.9,51.9z M206.7,81.3V56.1h6.2v25.1H206.7z"/>
			<path class="st0" d="M229.1,81.7c-4.9,0-8.3-1.8-8.3-7.5V61.2h-3.5v-5.1h3.5v-8l6.1-0.9v8.9h5.2l0.8,5.1H227v11.9
				c0,2,0.9,3.1,3.3,3.1c0.7,0,1.4-0.1,2-0.2l0.8,5.3C232.1,81.5,231,81.7,229.1,81.7z"/>
			<path class="st0" d="M252.4,81.3l-0.5-3.3c-2,2.1-4.6,3.8-8.4,3.8c-4.3,0-7.1-2.6-7.1-7c0-6.1,5-8.7,15.2-9.7v-0.7
				c0-2.7-1.6-3.7-4.3-3.7c-2.9,0-5.7,0.8-8.4,2l-0.8-5c2.9-1.1,6-2,10-2c6.5,0,9.7,2.4,9.7,8.4v17.2H252.4z M251.5,68.7
				c-7.2,0.9-9,3-9,5.4c0,1.8,1.1,2.9,3.1,2.9c2.1,0,4.2-1,5.9-2.7V68.7z"/>
			<path class="st0" d="M264.2,81.3V44.7l6.2-1v37.6H264.2z"/>
			<path class="st0" d="M304.4,81.9c-10.4,0-17-7.3-17-18.5c0-11.1,6.7-18.6,17.2-18.6c4.1,0,7.2,0.9,9.8,2.6l-1,6.5
				c-2.3-1.8-5.1-3.2-8.6-3.2c-6.5,0-10.4,4.9-10.4,12.7c0,7.8,4.1,12.6,10.5,12.6c3.4,0,6.4-1.2,9.1-3.1l0.9,6
				C312.2,80.6,308.5,81.9,304.4,81.9z"/>
			<path class="st0" d="M330.4,81.8c-6.8,0-11.8-4.9-11.8-13.1c0-8.2,5-13.1,11.8-13.1c6.9,0,11.9,4.9,11.9,13.1
				C342.3,76.9,337.3,81.8,330.4,81.8z M330.4,60.7c-3.7,0-5.7,3.3-5.7,8c0,4.6,2,8,5.7,8c3.9,0,5.8-3.3,5.8-8
				C336.2,64.1,334.2,60.7,330.4,60.7z"/>
			<path class="st0" d="M347.6,81.3V44.7l6.2-1v37.6H347.6z"/>
			<path class="st0" d="M360.8,81.3V44.7l6.2-1v37.6H360.8z"/>
			<path class="st0" d="M384.6,81.8c-7,0-12.3-4-12.3-13.1c0-8.2,4.9-13.1,11.5-13.1c7.5,0,10.9,5.7,10.9,12.8
				c0,0.5-0.1,1.1-0.1,1.5h-16.2c0.3,4.9,3,7,6.8,7c3.2,0,5.9-1.2,8.6-3.1l0.7,4.9C392,80.6,388.7,81.8,384.6,81.8z M378.6,66h10
				c-0.4-3.9-2-6.1-5-6.1C381.1,59.9,379,61.9,378.6,66z"/>
			<path class="st0" d="M410.4,81.7c-7,0-11.9-4.7-11.9-12.9c0-8.7,5.5-13.2,12.3-13.2c3.3,0,5.9,1,7.7,2.1l-0.9,5.6
				c-2-1.5-4-2.3-6.5-2.3c-3.7,0-6.3,2.7-6.3,7.7c0,5.2,2.9,7.7,6.5,7.7c2.2,0,4.3-0.6,6.6-2.4l0.8,5.4
				C416.3,80.9,413.7,81.7,410.4,81.7z"/>
			<path class="st0" d="M433.3,81.7c-4.9,0-8.3-1.8-8.3-7.5V61.2h-3.5v-5.1h3.5v-8l6.1-0.9v8.9h5.2l0.8,5.1h-5.9v11.9
				c0,2,0.9,3.1,3.3,3.1c0.7,0,1.4-0.1,2-0.2l0.8,5.3C436.3,81.5,435.1,81.7,433.3,81.7z"/>
			<path class="st0" d="M445.4,51.9c-2.1,0-3.7-1.5-3.7-3.5c0-2.1,1.7-3.6,3.7-3.6c2,0,3.7,1.5,3.7,3.6
				C449.1,50.4,447.4,51.9,445.4,51.9z M442.2,81.3V56.1h6.2v25.1H442.2z"/>
			<path class="st0" d="M465.5,81.8c-6.8,0-11.8-4.9-11.8-13.1c0-8.2,5-13.1,11.8-13.1c6.9,0,11.9,4.9,11.9,13.1
				C477.4,76.9,472.4,81.8,465.5,81.8z M465.5,60.7c-3.7,0-5.7,3.3-5.7,8c0,4.6,2,8,5.7,8c3.9,0,5.8-3.3,5.8-8
				C471.4,64.1,469.3,60.7,465.5,60.7z"/>
			<path class="st0" d="M497.7,81.3V64.8c0-2.2-0.9-3.7-3.2-3.7c-2,0-3.9,1.2-5.7,3.2v17h-6.2V56.1h5.3l0.6,3.5
				c2.3-2.2,5-4.1,8.4-4.1c4.7,0,7.2,2.9,7.2,7.5v18.1H497.7z"/>
			<path class="st0" d="M518.7,81.8c-3.6,0-7.4-1.1-9.8-2.4l0.8-5.2c2.7,1.8,6,3,9.2,3c2.7,0,4.2-1,4.2-2.7c0-1.8-1.1-2.5-5.1-3.5
				c-6.1-1.6-8.6-3.3-8.6-7.9c0-4.4,3.4-7.4,9.3-7.4c3.3,0,6.3,0.7,8.8,1.8l-0.8,5.2c-2.5-1.4-5.5-2.3-8-2.3c-2.3,0-3.5,0.9-3.5,2.3
				c0,1.4,0.9,2.1,4.7,3.1c6.5,1.7,9.1,3.4,9.1,8.2C528.8,78.8,525.3,81.8,518.7,81.8z"/>
		</g>
		<text transform="matrix(1 0 0 1 530.5533 81.2611)" class="st0 st1 st2"> </text>
		<g>
			<path class="st3" d="M570.1,81.6l-6.1-6.1c-3.2,4.1-7.5,6.3-12.5,6.3c-7.4,0-12.1-4.1-12.1-10.2c0-5.7,3.8-9.1,9.1-11.6
				c-2.7-2.8-4-5.1-4-8.6c0-4.9,3.7-8.8,9.9-8.8c3.4,0,6.3,0.9,9,2.4l-0.7,3.8c-2.9-1.8-5.7-2.9-8.4-2.9c-3.9,0-6,2.3-6,5.3
				c0,2.7,1.2,4.6,4,7.5l11.1,11.2c1.4-2.9,2.5-6.5,3.1-11l3.5,0.7c-0.9,5.1-2.3,9.3-4.1,12.7l8,8.1L570.1,81.6z M561.7,73.2
				l-10.9-10.8c-4.7,2-7.4,5-7.4,9c0,4.2,3.4,7.3,8.3,7.3C555.5,78.6,559,76.9,561.7,73.2z"/>
		</g>
		<g>
			<path class="st0" d="M595.1,45.2h7.3l13.2,35.2l-6.9,1.2l-3.4-9.5h-13.6l-3.1,9.1h-6.9L595.1,45.2z M593.5,66.5h9.8l-4.8-13.9
				L593.5,66.5z"/>
			<path class="st0" d="M626.1,66.8v14.4h-6.2V56.1h5.3l0.8,5.1c1.7-2.9,4.2-5.4,8.1-5.6l1,6.2C631.1,62,627.9,64.1,626.1,66.8z"/>
			<path class="st0" d="M648.9,81.7c-7,0-11.9-4.7-11.9-12.9c0-8.7,5.5-13.2,12.3-13.2c3.3,0,5.9,1,7.7,2.1l-0.9,5.6
				c-2-1.5-4-2.3-6.5-2.3c-3.7,0-6.3,2.7-6.3,7.7c0,5.2,2.9,7.7,6.5,7.7c2.2,0,4.3-0.6,6.6-2.4l0.8,5.4
				C654.9,80.9,652.3,81.7,648.9,81.7z"/>
			<path class="st0" d="M677.5,81.3V64.8c0-2.2-0.9-3.7-3.2-3.7c-2,0-3.9,1.2-5.7,3.2v17h-6.2V44.7l6.2-1v15.6
				c2.1-1.9,4.7-3.7,8-3.7c4.7,0,7.2,2.9,7.2,7.5v18.1H677.5z"/>
			<path class="st0" d="M693.4,51.9c-2.1,0-3.7-1.5-3.7-3.5c0-2.1,1.7-3.6,3.7-3.6c2,0,3.7,1.5,3.7,3.6
				C697.1,50.4,695.4,51.9,693.4,51.9z M690.2,81.3V56.1h6.2v25.1H690.2z"/>
			<path class="st0" d="M715.7,81.4h-6.2l-8.7-24.8l6.6-0.8l5.5,17.9l5.4-17.5h6.2L715.7,81.4z"/>
			<path class="st0" d="M738.8,81.8c-7,0-12.3-4-12.3-13.1c0-8.2,4.9-13.1,11.5-13.1c7.5,0,10.9,5.7,10.9,12.8
				c0,0.5-0.1,1.1-0.1,1.5h-16.2c0.3,4.9,3,7,6.8,7c3.2,0,5.9-1.2,8.6-3.1l0.7,4.9C746.1,80.6,742.9,81.8,738.8,81.8z M732.8,66h10
				c-0.4-3.9-2-6.1-5-6.1C735.3,59.9,733.2,61.9,732.8,66z"/>
			<path class="st0" d="M762.4,81.8c-3.6,0-7.4-1.1-9.8-2.4l0.8-5.2c2.7,1.8,6,3,9.2,3c2.7,0,4.2-1,4.2-2.7c0-1.8-1.1-2.5-5.1-3.5
				c-6.1-1.6-8.6-3.3-8.6-7.9c0-4.4,3.4-7.4,9.3-7.4c3.3,0,6.3,0.7,8.8,1.8l-0.8,5.2c-2.5-1.4-5.5-2.3-8-2.3c-2.3,0-3.5,0.9-3.5,2.3
				c0,1.4,0.9,2.1,4.7,3.1c6.5,1.7,9.1,3.4,9.1,8.2C772.6,78.8,769.1,81.8,762.4,81.8z"/>
		</g>
	</g>
	<g>
		<rect x="20.9" y="21.9" class="st3" width="84.6" height="84.6"/>
		<g>
			<path class="st4" d="M45.5,59.9h-8.4V33.4h8.4c9.2,0,14,5.4,14,13.2C59.5,54.5,54.6,59.9,45.5,59.9z M45.5,37.6h-3.3v18.1h3.2
				c5.6,0,8.9-2.8,8.9-9.1C54.3,40.5,50.8,37.6,45.5,37.6z"/>
			<path class="st4" d="M81,60.3c-7.7,0-12.5-5.4-12.5-13.7c0-8.2,5-13.8,12.7-13.8c3,0,5.3,0.7,7.3,1.9l-0.7,4.8
				c-1.7-1.3-3.8-2.3-6.3-2.3c-4.8,0-7.7,3.6-7.7,9.3c0,5.8,3,9.3,7.8,9.3c2.5,0,4.7-0.9,6.7-2.3l0.7,4.5
				C86.8,59.4,84.1,60.3,81,60.3z"/>
		</g>
		<text transform="matrix(1 0 0 1 34.314 95.8734)"><tspan x="0" y="0" class="st4 st1 st5 st6"> </tspan><tspan x="19.4" y="0" class="st4 st1 st5"> </tspan></text>
		<g>
			<path class="st4" d="M57.6,96.1l-4.3-4.3c-2.3,3-5.4,4.5-8.9,4.5c-5.3,0-8.6-2.9-8.6-7.3c0-4.1,2.7-6.5,6.5-8.3
				c-1.9-2-2.9-3.7-2.9-6.1c0-3.5,2.7-6.3,7.1-6.3c2.4,0,4.5,0.6,6.4,1.7l-0.5,2.7c-2-1.3-4.1-2-6-2c-2.8,0-4.3,1.7-4.3,3.8
				c0,1.9,0.8,3.3,2.9,5.4l8,8c1-2,1.8-4.6,2.2-7.8l2.5,0.5c-0.6,3.6-1.6,6.7-3,9.1l5.7,5.8L57.6,96.1z M51.5,90.1l-7.8-7.8
				c-3.4,1.4-5.3,3.6-5.3,6.4c0,3,2.4,5.2,5.9,5.2C47.1,94,49.6,92.8,51.5,90.1z"/>
		</g>
		<g>
			<path class="st4" d="M77.1,69.3h5.4l9.7,26l-5.1,0.9l-2.5-7h-10l-2.3,6.7h-5.1L77.1,69.3z M75.9,85h7.2l-3.6-10.3L75.9,85z"/>
		</g>
	</g>
</g>
</svg>
