<?xml version="1.0" encoding="utf-8"?>
<!-- Generator: Adobe Illustrator 25.2.0, SVG Export Plug-In . SVG Version: 6.00 Build 0)  -->
<svg version="1.1" id="Layer_1" xmlns="http://www.w3.org/2000/svg" xmlns:xlink="http://www.w3.org/1999/xlink" x="0px" y="0px"
	 viewBox="0 0 1204 158" style="enable-background:new 0 0 1204 158;" xml:space="preserve">
<style type="text/css">
	.st0{clip-path:url(#SVGID_2_);fill:#346094;}
	.st1{fill:#00B0B9;}
	.st2{clip-path:url(#SVGID_4_);fill:#FFFFFF;}
	.st3{fill:#FFFFFF;}
	.st4{clip-path:url(#SVGID_6_);fill:#FFFFFF;}
</style>
<g>
	<defs>
		<rect id="SVGID_1_" x="15.8" y="16.2" width="1172.3" height="127.1"/>
	</defs>
	<clipPath id="SVGID_2_">
		<use xlink:href="#SVGID_1_"  style="overflow:visible;"/>
	</clipPath>
	<path class="st0" d="M1188.2,72.6l-1.5-9.3c-5.9,0.3-9.6,4-12.1,8.4l-1.2-7.6h-8v37.8h9.4V80.2C1177.4,76.1,1182.3,73,1188.2,72.6
		 M1141.1,69.8c4.5,0,6.9,3.3,7.5,9.2h-15.1C1134.3,72.8,1137.4,69.8,1141.1,69.8 M1157.7,98l-1.1-7.4c-4.1,2.9-8.1,4.7-13,4.7
		c-5.8,0-9.8-3.1-10.2-10.6h24.3c0-0.5,0.1-1.5,0.1-2.3c0-10.7-5.1-19.2-16.4-19.2c-9.9,0-17.2,7.4-17.2,19.7
		c0,13.6,7.9,19.6,18.5,19.6C1148.7,102.6,1153.7,100.8,1157.7,98 M1119.4,101.8l-1.2-7.9c-0.9,0.2-1.9,0.3-3,0.3
		c-3.6,0-5-1.6-5-4.7V71.7h8.9l-1.2-7.7h-7.7V50.7l-9.2,1.4v12h-5.3v7.7h5.3v19.4c0,8.6,5,11.3,12.4,11.3
		C1116.2,102.5,1117.9,102.2,1119.4,101.8 M1089.7,101.8V74.6c0-7-3.8-11.3-10.8-11.3c-5.1,0-9.1,2.7-12.6,6.1l-0.9-5.3h-8v37.8h9.4
		V76.3c2.7-2.9,5.6-4.8,8.6-4.8c3.4,0,4.9,2.3,4.9,5.6v24.7H1089.7z M1033.2,69.8c4.5,0,6.9,3.3,7.5,9.2h-15.1
		C1026.3,72.8,1029.4,69.8,1033.2,69.8 M1049.8,98l-1.1-7.4c-4.1,2.9-8.1,4.7-13,4.7c-5.8,0-9.8-3.1-10.2-10.6h24.3
		c0-0.5,0.1-1.5,0.1-2.3c0-10.7-5.1-19.2-16.4-19.2c-9.9,0-17.2,7.4-17.2,19.7c0,13.6,7.9,19.6,18.5,19.6
		C1040.8,102.6,1045.7,100.8,1049.8,98 M1010.9,98.2l-1.4-9.1c-4.1,2.8-8.6,4.7-13.7,4.7c-9.7,0-15.8-7.2-15.8-18.9
		c0-11.7,5.9-19,15.6-19c5.2,0,9.4,2.1,12.9,4.8l1.5-9.8c-4-2.5-8.7-3.9-14.8-3.9c-15.7,0-25.8,11.3-25.8,28
		c0,16.8,9.9,27.9,25.5,27.9C1001.1,102.8,1006.6,100.9,1010.9,98.2 M944.4,101.8V74.6c0-7-3.8-11.3-10.8-11.3c-5,0-8.9,2.7-12,5.6
		V45.4l-9.4,1.5v55h9.4V76.3c2.7-2.9,5.6-4.8,8.6-4.8c3.4,0,4.9,2.3,4.9,5.6v24.7H944.4z M904.7,99l-1.3-8.1
		c-3.4,2.7-6.6,3.6-9.9,3.6c-5.5,0-9.8-3.8-9.8-11.6c0-7.5,3.9-11.5,9.5-11.5c3.8,0,6.7,1.3,9.8,3.5l1.3-8.5
		c-2.7-1.7-6.7-3.2-11.6-3.2c-10.2,0-18.5,6.7-18.5,19.9c0,12.4,7.4,19.4,17.9,19.4C897.2,102.6,901.1,101.4,904.7,99 M871.3,72.6
		l-1.5-9.3c-5.9,0.3-9.6,4-12.1,8.4l-1.2-7.6h-8v37.8h9.4V80.2C860.6,76.1,865.4,73,871.3,72.6 M829.8,91.4
		c-2.6,2.6-5.6,4.1-8.8,4.1c-2.9,0-4.6-1.6-4.6-4.4c0-3.6,2.6-6.8,13.5-8.1V91.4z M839.2,101.8V75.9c0-9.1-4.9-12.7-14.6-12.7
		c-6,0-10.6,1.3-15,3.1l1.2,7.5c4.1-1.8,8.2-3.1,12.6-3.1c4.1,0,6.5,1.6,6.5,5.6v1.1C814.6,79,807,83,807,92.1
		c0,6.6,4.3,10.5,10.7,10.5c5.6,0,9.5-2.5,12.6-5.7l0.8,4.9H839.2z M784.9,69.8c4.5,0,6.9,3.3,7.5,9.2h-15.1
		C778,72.8,781.1,69.8,784.9,69.8 M801.5,98l-1.1-7.4c-4.1,2.9-8.1,4.7-13,4.7c-5.8,0-9.8-3.1-10.2-10.6h24.3c0-0.5,0.1-1.5,0.1-2.3
		c0-10.7-5.1-19.2-16.4-19.2c-9.9,0-17.2,7.4-17.2,19.7c0,13.6,7.9,19.6,18.5,19.6C792.5,102.6,797.4,100.8,801.5,98 M762.4,90.7
		c0-7.1-3.8-9.8-13.6-12.3c-5.6-1.5-7-2.7-7-4.7c0-2,1.7-3.4,5.2-3.4c3.8,0,8.2,1.3,12,3.4l1.3-7.8c-3.8-1.6-8.3-2.7-13.2-2.7
		c-8.8,0-13.9,4.6-13.9,11.2c0,6.9,3.8,9.5,13,11.9c6,1.5,7.7,2.6,7.7,5.2c0,2.5-2.2,4-6.3,4c-4.7,0-9.7-1.8-13.8-4.5l-1.3,7.8
		c3.6,2,9.2,3.7,14.7,3.7C757.1,102.6,762.4,98.2,762.4,90.7 M710.2,69.8c4.5,0,6.9,3.3,7.5,9.2h-15.1
		C703.3,72.8,706.4,69.8,710.2,69.8 M726.8,98l-1.1-7.4c-4.1,2.9-8.1,4.7-13,4.7c-5.8,0-9.8-3.1-10.2-10.6h24.3
		c0-0.5,0.1-1.5,0.1-2.3c0-10.7-5.1-19.2-16.4-19.2c-9.9,0-17.2,7.4-17.2,19.7c0,13.6,7.9,19.6,18.5,19.6
		C717.8,102.6,722.7,100.8,726.8,98 M677,64.6c0,5.6-4,8.7-10.4,8.7h-5.2V56.2h5.7C673.6,56.2,677,59.2,677,64.6 M690.9,100.4
		l-14.6-21.2c6.7-2.3,11-7.3,11-15.2c0-10.5-7.3-16.2-19.3-16.2h-16.7v54h10.3V81.2h4.4l14.1,21.2L690.9,100.4z M623.5,101.8V45.4
		l-9.4,1.5v55H623.5z M595,91.4c-2.6,2.6-5.6,4.1-8.8,4.1c-2.9,0-4.6-1.6-4.6-4.4c0-3.6,2.6-6.8,13.5-8.1V91.4z M604.4,101.8V75.9
		c0-9.1-4.9-12.7-14.6-12.7c-6,0-10.6,1.3-15,3.1l1.2,7.5c4.1-1.8,8.2-3.1,12.6-3.1c4.1,0,6.5,1.6,6.5,5.6v1.1
		c-15.3,1.5-22.8,5.5-22.8,14.6c0,6.6,4.3,10.5,10.7,10.5c5.6,0,9.5-2.5,12.6-5.7l0.8,4.9H604.4z M569.5,64.1h-9.4L552,90.3
		l-8.3-26.8l-9.9,1.3l13.1,37.3h9.3L569.5,64.1z M527.3,64.1h-9.4v37.8h9.4V64.1z M528.3,52.4c0-3.2-2.5-5.5-5.6-5.5
		c-3.1,0-5.6,2.3-5.6,5.5c0,3.1,2.5,5.3,5.6,5.3C525.8,57.7,528.3,55.5,528.3,52.4 M508.2,101.8V74.6c0-7-3.8-11.3-10.8-11.3
		c-5,0-8.9,2.7-12,5.6V45.4l-9.4,1.5v55h9.4V76.3c2.7-2.9,5.6-4.8,8.6-4.8c3.4,0,4.9,2.3,4.9,5.6v24.7H508.2z M468.4,99l-1.3-8.1
		c-3.4,2.7-6.7,3.6-9.9,3.6c-5.5,0-9.8-3.8-9.8-11.6c0-7.5,3.9-11.5,9.5-11.5c3.8,0,6.7,1.3,9.8,3.5l1.3-8.5
		c-2.7-1.7-6.7-3.2-11.6-3.2c-10.2,0-18.5,6.7-18.5,19.9c0,12.4,7.4,19.4,17.9,19.4C460.9,102.6,464.8,101.4,468.4,99 M435,72.6
		l-1.5-9.3c-5.9,0.3-9.6,4-12.1,8.4l-1.2-7.6h-8v37.8h9.4V80.2C424.3,76.1,429.1,73,435,72.6 M380.1,58.8l7.3,20.9h-14.7L380.1,58.8
		z M354.7,101.8h10.4l4.7-13.7h20.4l5.2,14.2l10.4-1.9L386,47.6h-11L354.7,101.8z M331,92.1c0-6.2-4.3-9.1-12.7-11.3
		c-6.6-1.8-8.8-3.5-8.8-7c0-3.4,2.6-6.1,8.4-6.1c3.5,0,7,0.9,10.3,2.7l0.6-3.5c-3-1.5-6.7-2.5-10.8-2.5c-7.3,0-12.1,4.1-12.1,9.7
		c0,5.6,3.5,8.3,11.3,10.4c7.9,2.2,10.2,4.1,10.2,8c0,4.3-3.6,6.7-9.1,6.7c-4.9,0-9.3-1.6-12.8-3.6l-0.7,3.6
		c3.3,1.8,8.1,3.3,13.1,3.3C325.6,102.5,331,98.8,331,92.1 M297.7,101.7l-0.5-3c-0.9,0.2-2.5,0.5-3.7,0.5c-4.1,0-5.8-1.5-5.8-5.8
		V68.2h9.5l-0.5-3.1h-9V51.2L284,52v13.1h-5.7v3.1h5.7v25.9c0,6.2,3.4,8.4,8.7,8.4C294.7,102.5,296.7,102.1,297.7,101.7 M273.6,49.7
		l-0.5-3.5c-0.7-0.1-1.3-0.1-2.4-0.1c-6.1,0-9.5,3.3-9.5,9.6v9.3h-5.7v3.1h5.7v33.6h3.6V68.2h8.3l-0.5-3.1h-7.7v-9.2
		c0-4.5,2.3-6.4,6-6.4C272.3,49.5,272.9,49.6,273.6,49.7 M246,101.8V65.1h-3.7v27.5c-4.6,4.3-8.8,6.7-12.9,6.7
		c-5.2,0-7.9-3.1-7.9-8.6V65.1h-3.7V91c0,7.4,3.6,11.7,11.2,11.7c4.9,0,8.9-2.4,13.4-6.3l0.9,5.6H246z M216.2,51.3l-0.5-3.4h-38.6
		v3.4h17.5v50.5h3.8V51.3H216.2z"/>
</g>
<rect x="15.8" y="16.2" class="st1" width="127.1" height="127.1"/>
<g>
	<defs>
		<rect id="SVGID_3_" x="15.8" y="16.2" width="1172.3" height="127.1"/>
	</defs>
	<clipPath id="SVGID_4_">
		<use xlink:href="#SVGID_3_"  style="overflow:visible;"/>
	</clipPath>
	<path class="st2" d="M60.7,96c0,4.2-2.9,6.4-7.7,6.4h-3.9V89.8h4.2C58.2,89.8,60.7,92,60.7,96 M70.9,122.4l-10.8-15.6
		c5-1.7,8.1-5.4,8.1-11.2c0-7.7-5.4-12-14.3-12H41.6v39.8h7.6v-15.2h3.2l10.4,15.6L70.9,122.4z"/>
</g>
<polygon class="st3" points="69.5,36 69,32.4 39.7,32.4 39.7,36 52.5,36 52.5,72.2 56.5,72.2 56.5,36 "/>
<g>
	<defs>
		<rect id="SVGID_5_" x="15.8" y="16.2" width="1172.3" height="127.1"/>
	</defs>
	<clipPath id="SVGID_6_">
		<use xlink:href="#SVGID_5_"  style="overflow:visible;"/>
	</clipPath>
	<path class="st4" d="M116.9,120.8l-1-6.7c-3.1,2.1-6.4,3.5-10.1,3.5c-7.2,0-11.7-5.3-11.7-14c0-8.6,4.3-14,11.5-14
		c3.9,0,6.9,1.6,9.5,3.5l1.1-7.2c-2.9-1.8-6.4-2.9-10.9-2.9c-11.6,0-19.1,8.3-19.1,20.7c0,12.4,7.3,20.6,18.8,20.6
		C109.7,124.2,113.8,122.8,116.9,120.8"/>
</g>
<path class="st3" d="M101.3,40.5l5.4,15.4H95.8L101.3,40.5z M82.6,72.2h7.7l3.5-10.1h15.1l3.8,10.5l7.7-1.4l-14.6-39h-8.1L82.6,72.2
	z"/>
</svg>
