<?xml version="1.0" encoding="utf-8"?>
<!-- Generator: Adobe Illustrator 25.2.0, SVG Export Plug-In . SVG Version: 6.00 Build 0)  -->
<svg version="1.1" id="Layer_1" xmlns="http://www.w3.org/2000/svg" xmlns:xlink="http://www.w3.org/1999/xlink" x="0px" y="0px"
	 viewBox="0 0 732 158" style="enable-background:new 0 0 732 158;" xml:space="preserve">
<style type="text/css">
	.st0{fill:#346094;}
	.st1{fill:#00B0B9;}
	.st2{fill:#FFFFFF;}
</style>
<g>
	<g>
		<path class="st0" d="M716.4,114l-1.4-9c-5.7,0.3-9.3,3.9-11.8,8.1l-1.1-7.4h-7.7v36.7h9.1v-21C706,117.4,710.8,114.4,716.4,114
			 M670.8,111.3c4.4,0,6.7,3.2,7.3,8.9h-14.7C664.1,114.2,667.2,111.3,670.8,111.3 M686.9,138.7l-1.1-7.1c-4,2.8-7.9,4.6-12.6,4.6
			c-5.6,0-9.5-3-9.9-10.3h23.6c0-0.5,0.1-1.4,0.1-2.2c0-10.4-4.9-18.7-15.9-18.7c-9.6,0-16.7,7.2-16.7,19.1
			c0,13.2,7.7,19.1,17.9,19.1C678.2,143.2,683,141.4,686.9,138.7 M649.7,142.4l-1.1-7.7c-0.8,0.2-1.8,0.3-2.9,0.3
			c-3.5,0-4.9-1.6-4.9-4.6v-17.3h8.7l-1.1-7.4h-7.5v-13l-9,1.4v11.6h-5.2v7.4h5.2V132c0,8.4,4.9,11,12.1,11
			C646.6,143,648.3,142.7,649.7,142.4 M620.8,142.4V116c0-6.8-3.6-11-10.5-11c-4.9,0-8.8,2.7-12.2,5.9l-0.8-5.2h-7.7v36.7h9.1v-24.8
			c2.7-2.8,5.5-4.6,8.4-4.6c3.3,0,4.7,2.2,4.7,5.4v24H620.8z M566,111.3c4.4,0,6.7,3.2,7.3,8.9h-14.7
			C559.3,114.2,562.4,111.3,566,111.3 M582.1,138.7l-1.1-7.1c-4,2.8-7.9,4.6-12.6,4.6c-5.6,0-9.5-3-9.9-10.3h23.6
			c0-0.5,0.1-1.4,0.1-2.2c0-10.4-4.9-18.7-15.9-18.7c-9.6,0-16.7,7.2-16.7,19.1c0,13.2,7.7,19.1,17.9,19.1
			C573.4,143.2,578.2,141.4,582.1,138.7 M544.4,138.8L543,130c-4,2.7-8.4,4.6-13.3,4.6c-9.4,0-15.3-7-15.3-18.4
			c0-11.3,5.7-18.5,15.2-18.5c5.1,0,9.1,2.1,12.5,4.6l1.4-9.5c-3.9-2.4-8.4-3.8-14.4-3.8c-15.3,0-25.1,10.9-25.1,27.2
			c0,16.3,9.6,27,24.8,27C534.9,143.3,540.3,141.5,544.4,138.8 M480,142.4V116c0-6.8-3.6-11-10.5-11c-4.9,0-8.7,2.6-11.7,5.4V87.6
			l-9.1,1.4v53.4h9.1v-24.8c2.7-2.8,5.5-4.6,8.4-4.6c3.3,0,4.7,2.2,4.7,5.4v24H480z M441.5,139.6l-1.2-7.8c-3.3,2.6-6.5,3.5-9.6,3.5
			c-5.3,0-9.5-3.6-9.5-11.2c0-7.3,3.8-11.2,9.2-11.2c3.6,0,6.5,1.2,9.5,3.4l1.3-8.2c-2.7-1.7-6.5-3.1-11.2-3.1
			c-9.9,0-17.9,6.5-17.9,19.3c0,12,7.2,18.8,17.4,18.8C434.2,143.1,438,142,441.5,139.6 M409,114l-1.4-9c-5.7,0.3-9.3,3.9-11.8,8.1
			l-1.1-7.4h-7.7v36.7h9.1v-21C398.6,117.4,403.3,114.4,409,114 M368.8,132.3c-2.5,2.5-5.5,3.9-8.6,3.9c-2.8,0-4.5-1.6-4.5-4.3
			c0-3.5,2.5-6.6,13.1-7.9V132.3z M377.9,142.4v-25.1c0-8.8-4.7-12.3-14.2-12.3c-5.8,0-10.3,1.3-14.6,3l1.1,7.3c3.9-1.7,8-3,12.2-3
			c4,0,6.3,1.5,6.3,5.5v1.1c-14.8,1.4-22.1,5.3-22.1,14.2c0,6.4,4.2,10.2,10.4,10.2c5.5,0,9.3-2.4,12.2-5.5l0.8,4.8H377.9z
			 M325.2,111.3c4.4,0,6.7,3.2,7.3,8.9h-14.7C318.5,114.2,321.6,111.3,325.2,111.3 M341.3,138.7l-1.1-7.1c-4,2.8-7.9,4.6-12.6,4.6
			c-5.6,0-9.5-3-9.9-10.3h23.6c0-0.5,0.1-1.4,0.1-2.2c0-10.4-4.9-18.7-15.9-18.7c-9.6,0-16.7,7.2-16.7,19.1
			c0,13.2,7.7,19.1,17.9,19.1C332.6,143.2,337.4,141.4,341.3,138.7 M303.4,131.6c0-6.9-3.7-9.5-13.2-11.9c-5.5-1.4-6.8-2.6-6.8-4.6
			c0-2,1.7-3.3,5.1-3.3c3.6,0,8,1.3,11.6,3.3l1.2-7.6c-3.6-1.6-8-2.6-12.8-2.6c-8.5,0-13.5,4.5-13.5,10.9c0,6.7,3.7,9.3,12.6,11.5
			c5.8,1.4,7.4,2.5,7.4,5.1c0,2.4-2.1,3.9-6.1,3.9c-4.6,0-9.4-1.7-13.4-4.3l-1.2,7.6c3.5,1.9,9,3.6,14.3,3.6
			C298.3,143.2,303.4,138.8,303.4,131.6 M252.7,111.3c4.4,0,6.7,3.2,7.3,8.9h-14.7C246,114.2,249,111.3,252.7,111.3 M268.8,138.7
			l-1.1-7.1c-4,2.8-7.9,4.6-12.6,4.6c-5.6,0-9.5-3-9.9-10.3h23.6c0-0.5,0.1-1.4,0.1-2.2c0-10.4-4.9-18.7-15.9-18.7
			c-9.6,0-16.7,7.2-16.7,19.1c0,13.2,7.7,19.1,17.9,19.1C260.1,143.2,264.8,141.4,268.8,138.7 M220.5,106.3c0,5.5-3.9,8.4-10.1,8.4
			h-5.1V98.1h5.5C217.2,98.1,220.5,101,220.5,106.3 M233.9,141l-14.2-20.6c6.5-2.3,10.6-7.1,10.6-14.7c0-10.2-7.1-15.7-18.8-15.7
			h-16.2v52.4h10v-20h4.3l13.7,20.6L233.9,141z"/>
		<path class="st0" d="M625.5,69.5V14.7l-9.1,1.4v53.4H625.5z M597.9,59.4c-2.5,2.5-5.5,3.9-8.6,3.9c-2.8,0-4.5-1.6-4.5-4.3
			c0-3.5,2.5-6.6,13.1-7.9V59.4z M607,69.5V44.4c0-8.8-4.7-12.3-14.2-12.3c-5.8,0-10.3,1.3-14.6,3l1.1,7.3c3.9-1.7,8-3,12.2-3
			c4,0,6.3,1.5,6.3,5.5v1.1c-14.8,1.4-22.1,5.3-22.1,14.2c0,6.4,4.2,10.2,10.4,10.2c5.5,0,9.3-2.4,12.2-5.5l0.8,4.8H607z
			 M573.1,32.8H564l-7.9,25.5l-8-26l-9.6,1.2l12.7,36.2h9L573.1,32.8z M532.2,32.8h-9.1v36.7h9.1V32.8z M533.1,21.5
			c0-3.1-2.4-5.3-5.4-5.3c-3,0-5.5,2.2-5.5,5.3c0,3,2.4,5.2,5.5,5.2C530.7,26.7,533.1,24.5,533.1,21.5 M513.6,69.5V43.1
			c0-6.8-3.6-11-10.5-11c-4.9,0-8.7,2.6-11.7,5.4V14.7l-9.1,1.4v53.4h9.1V44.7c2.7-2.8,5.5-4.6,8.4-4.6c3.3,0,4.7,2.2,4.7,5.4v24
			H513.6z M475,66.7l-1.2-7.8c-3.3,2.6-6.5,3.5-9.6,3.5c-5.3,0-9.5-3.6-9.5-11.2c0-7.3,3.8-11.2,9.2-11.2c3.6,0,6.5,1.2,9.5,3.4
			l1.3-8.2c-2.7-1.7-6.5-3.1-11.2-3.1c-9.9,0-17.9,6.5-17.9,19.3c0,12,7.2,18.8,17.4,18.8C467.7,70.2,471.5,69,475,66.7 M442.6,41.1
			l-1.4-9c-5.7,0.3-9.3,3.9-11.8,8.1l-1.1-7.4h-7.7v36.7h9.1v-21C432.2,44.5,436.9,41.5,442.6,41.1 M389.3,27.7l7.1,20.3h-14.3
			L389.3,27.7z M364.7,69.5h10.1l4.6-13.3h19.8l5,13.8l10.1-1.8l-19.2-51.3h-10.7L364.7,69.5z M341.7,60.1c0-6-4.2-8.8-12.3-11
			c-6.4-1.7-8.5-3.4-8.5-6.8c0-3.3,2.5-5.9,8.1-5.9c3.4,0,6.8,0.9,10,2.6l0.6-3.4c-2.9-1.4-6.5-2.4-10.5-2.4
			c-7.1,0-11.8,3.9-11.8,9.4s3.4,8,10.9,10.1c7.7,2.1,9.9,4,9.9,7.7c0,4.2-3.5,6.5-8.8,6.5c-4.7,0-9-1.6-12.4-3.5l-0.7,3.5
			c3.2,1.7,7.9,3.2,12.7,3.2C336.4,70.1,341.7,66.5,341.7,60.1 M309.3,69.3l-0.5-2.9c-0.8,0.2-2.4,0.5-3.6,0.5
			c-3.9,0-5.6-1.4-5.6-5.6V36.8h9.2l-0.5-3h-8.7V20.4l-3.6,0.8v12.7h-5.5v3h5.5V62c0,6,3.3,8.1,8.4,8.1
			C306.5,70.1,308.4,69.7,309.3,69.3 M285.9,18.9l-0.5-3.4c-0.7-0.1-1.2-0.1-2.4-0.1c-5.9,0-9.2,3.2-9.2,9.3v9h-5.5v3h5.5v32.7h3.5
			V36.8h8l-0.5-3h-7.5v-8.9c0-4.4,2.2-6.2,5.8-6.2C284.7,18.7,285.3,18.8,285.9,18.9 M259.2,69.5V33.8h-3.6v26.7
			c-4.5,4.2-8.6,6.5-12.5,6.5c-5.1,0-7.7-3-7.7-8.4V33.8h-3.6v25.1c0,7.1,3.5,11.3,10.9,11.3c4.7,0,8.7-2.4,13-6.2l0.9,5.4H259.2z
			 M230.2,20.4l-0.5-3.3h-37.4v3.3h17v49.1h3.6V20.4H230.2z"/>
	</g>
	<rect x="15.6" y="15.5" class="st1" width="126.9" height="126.9"/>
	<g>
		<path class="st2" d="M60.3,95.2c0,4.2-2.9,6.4-7.7,6.4h-3.9V88.9H53C57.8,88.9,60.3,91.2,60.3,95.2 M70.5,121.6l-10.8-15.6
			c5-1.7,8.1-5.4,8.1-11.2c0-7.7-5.4-11.9-14.2-11.9H41.3v39.8h7.6v-15.2h3.2L62.5,123L70.5,121.6z"/>
	</g>
	<polygon class="st2" points="69.1,35.3 68.6,31.7 39.4,31.7 39.4,35.3 52.1,35.3 52.1,71.4 56.1,71.4 56.1,35.3 	"/>
	<g>
		<path class="st2" d="M116.5,119.9l-1-6.7c-3.1,2.1-6.3,3.5-10.1,3.5c-7.1,0-11.6-5.3-11.6-13.9c0-8.6,4.3-14,11.5-14
			c3.9,0,6.9,1.6,9.5,3.5l1.1-7.2c-2.9-1.8-6.4-2.9-10.9-2.9c-11.6,0-19,8.3-19,20.6c0,12.4,7.3,20.5,18.8,20.5
			C109.3,123.3,113.4,121.9,116.5,119.9"/>
	</g>
	<path class="st2" d="M100.9,39.7l5.4,15.4H95.4L100.9,39.7z M82.2,71.4h7.7l3.5-10.1h15l3.8,10.5l7.7-1.4l-14.6-39h-8.1L82.2,71.4z
		"/>
</g>
</svg>
