<?xml version="1.0" encoding="utf-8"?>
<!-- Generator: Adobe Illustrator 21.0.0, SVG Export Plug-In . SVG Version: 6.00 Build 0)  -->
<svg version="1.1" id="logo" xmlns="http://www.w3.org/2000/svg" xmlns:xlink="http://www.w3.org/1999/xlink" x="0px" y="0px"
	 viewBox="0 0 458 176.6" style="enable-background:new 0 0 458 176.6;" xml:space="preserve">
<style type="text/css">
	.st0{fill:#FFFFFF;}
</style>
<g>
	<path class="st0" d="M15,1.2c0,1.7,0,47.5,0,49.2c1.6,0,16.6,0,18.1,0c0-1.7,0-28.9,0-28.9h23.6v88.6c0,0-17.8,0-19.5,0
		c0,1.6,0,16.2,0,17.8c1.7,0,66.8,0,68.5,0c0-1.6,0-16.2,0-17.8c-1.6,0-19.5,0-19.5,0V21.5h24.1c0,0,0,13.4,0,15
		c1.5,0,16.4,0,17.9,0c0-1.7,0-33.6,0-35.2C126.5,1.2,16.7,1.2,15,1.2z M164,41.7c0,1.5,0,15.2,0,16.7c1.6,0,13.9,0,13.9,0V102
		l-0.8,0.6c-6.1,4.5-11.9,6.8-17.2,6.8c-4.2,0-7.3-1.1-9-3.2c-1.7-2-2.5-5.5-2.5-10.5c0,0,0-52.4,0-54.1c-1.7,0-36.4,0-38.1,0
		c0,1.5,0,15.2,0,16.7c1.6,0,13.5,0,13.5,0v44.7c0,8.3,2.3,14.7,6.8,19.2c4.5,4.5,10.9,6.7,19,6.7c8.4,0,16.9-2.9,25.1-8.6l3.2-2.2
		c0,0,0,8.1,0,9.5c1.7,0,33,0,34.7,0c0-1.5,0-15.1,0-16.6c-1.5,0-10,0-10,0s0-67.6,0-69.4C200.8,41.7,165.7,41.7,164,41.7z
		 M238.1,8.9L238.1,8.9c-5.5,5.9-8.3,13.5-8.3,22.4v10.3c0,0-10.6,0-12.1,0c0,1.5,0,15.2,0,16.7c1.5,0,12.1,0,12.1,0V111
		c0,0-10.6,0-12.1,0c0,1.5,0,15.1,0,16.6c1.7,0,49.2,0,50.9,0c0-1.5,0-15.1,0-16.6c-1.6,0-14.2,0-14.2,0V58.4c0,0,12.6,0,14.2,0
		c0-1.5,0-15.2,0-16.7c-1.6,0-14.2,0-14.2,0V29.7c0-12,5.2-14.5,9.5-14.5c3.8,0,6.9,2.8,9,8.4c1.4-1.1,15.6-12.2,16.9-13.2
		C284.2,3.5,275.1,0,262.8,0C251.8,0,243.5,3,238.1,8.9z M302.4,14.2c0,0-16.4,11.8-17.1,12.3c0,0.9,0,15.2,0,15.2s-9.9,0-11.5,0
		c0,1.5,0,15.2,0,16.7c1.5,0,11.5,0,11.5,0v49.2c0,14.6,6.9,21.4,21.6,21.4c6.3,0,12.9-1.3,19.6-3.9c0-1.1,0-13.8,0-15.8
		c-2.6,0.8-5,1.2-7,1.2c-4,0-6.5-0.9-7.8-2.6c-1.2-1.6-1.8-4.3-1.8-8.4V58.4c0,0,15,0,16.6,0c0-1.5,0-15.2,0-16.7
		c-1.6,0-16.6,0-16.6,0s0-29.7,0-32.9C307.9,10.2,302.4,14.2,302.4,14.2z M336.6,47L336.6,47c-5.8,4.8-8.7,10.9-8.7,17.9
		c0,7.5,3.1,13.6,9.2,18.1c6.3,4.7,16.7,8.2,31,10.5c7.3,1.2,12.1,2.5,14.6,3.9c2.8,1.5,4.3,3.8,4.3,6.6c0,3-1.5,5.5-4.5,7.3
		c-2.8,1.8-6.8,2.7-11.7,2.7c-5.7,0-10.6-1.3-14.5-4c-3.6-2.5-5.7-5.8-6.2-9.9c-0.9,0-17.6,0-18.7,0c0,1.2,0,27.3,0,28.5
		c1.1,0,17.4,0,18.5,0c0-1,0-6.5,0-6.5l2.2,2.4c3.7,4.1,10.8,6.1,21.1,6.1c11.2,0,19.9-2.7,25.9-8.1c6-5.3,9-12.3,9-20.7
		c0-5.9-1.6-11-4.7-15.2c-3.2-4.2-7.4-7.3-12.7-9.1c-5.4-1.9-13.8-3.8-24.8-5.7c-7.2-1.3-11.6-2.4-13.5-3.3
		c-2.1-1.1-3.2-2.9-3.2-5.1c0-5.4,4.6-8.1,13.7-8.1c11.3,0,18.2,3.2,20.6,9.4c0.7,0,17.4,0,18.5,0c0-1.2,0-22.5,0-23.7
		c-1.1,0-16.9,0-18.1,0c0,0.8,0,3.7,0,3.7l-1.7-0.7c-6.9-2.9-14.4-4.4-22.3-4.4C350.3,39.6,342.4,42.1,336.6,47z M132.7,166.1h-1.3
		c-0.8,0-1.3-0.1-1.3-1.2c0-0.4-0.1-7.7-0.1-8v-2.5c0-0.4,0.1-7.4,0.1-7.7c0-0.6,0.5-0.9,1.2-0.9h1.2c0.1,0,0.3-0.1,0.3-0.3v-0.7
		c0-0.2-0.1-0.3-0.3-0.3c-0.4,0-1.5,0.1-4.5,0.1c-3.1,0-4.8-0.1-5.2-0.1c-0.1,0-0.2,0.1-0.2,0.2v0.8c0,0.2,0.1,0.2,0.3,0.2h1.7
		c0.9,0,1.2,0.3,1.3,1.1c0,0.4,0.1,6.2,0.1,6.9v2.2c0,1.7-0.1,8.6-0.1,9.1c-0.1,0.9-0.8,0.9-1.5,0.9h-1.3c-0.2,0-0.3,0.1-0.3,0.2
		v0.9c0,0.2,0.1,0.2,0.3,0.2c0.3,0,1.7-0.1,4.9-0.1c3,0,4.3,0.1,4.7,0.1c0.2,0,0.3-0.1,0.3-0.3v-0.8
		C133,166.2,132.9,166.1,132.7,166.1z M175.2,144.5c-0.3,0-1.1,0.1-3.8,0.1c-2,0-3.5-0.1-3.8-0.1c-0.2,0-0.3,0.1-0.3,0.3v0.7
		c0,0.2,0.1,0.3,0.2,0.3h0.9c0.9,0,1.2,0.5,1.2,0.9c0,1.3-2,6.1-2.5,7.6c-0.3,1-2.4,6.3-3.1,8.1v0.1H164c-0.5-1.7-2.2-6.8-2.7-8
		c-0.6-1.9-1.9-5.6-2.1-6.8c-0.1-0.4-0.1-0.8-0.1-1.1c0-0.5,0.5-0.8,1.3-0.8h1.5c0.2,0,0.3-0.1,0.3-0.3v-0.7c0-0.2-0.1-0.3-0.3-0.3
		c-0.3,0-1.7,0.1-4.7,0.1c-3.3,0-4.4-0.1-4.7-0.1c-0.1,0-0.2,0.1-0.2,0.3v0.7c0,0.2,0.1,0.3,0.2,0.3h0.8c0.7,0,1.1,0.3,1.4,1
		c0.4,0.9,1.8,5,2.6,7.3c1.1,3,3.8,10.3,4.9,13c0.2,0.4,0.3,0.7,0.7,0.7c0.3,0,0.5-0.2,0.6-0.4c0.3-0.7,4.2-10,4.8-11.4
		c0.9-2.1,2.8-7.1,3.9-8.8c0.7-1.2,1.6-1.5,2.3-1.5h0.8c0.2,0,0.3-0.1,0.3-0.3v-0.8C175.5,144.6,175.4,144.5,175.2,144.5z
		 M213.3,161.5c-0.1-0.1-0.2,0-0.4,0.1c-0.6,0.8-2.4,2.9-3,3.4c-0.8,0.7-2,1-2.6,1.1c-0.6,0.1-2.1,0.1-2.7,0.1c-1.2,0-2-0.1-2.5-0.3
		c-0.7-0.2-1.3-0.8-1.3-2.5c0-0.6-0.1-3.7-0.1-5.4l0-1.9c1,0,2.6,0.1,3.7,0.2c0.7,0.1,1.3,0.5,1.6,1.2c0.2,0.4,0.4,1.1,0.5,1.6
		c0.1,0.2,0.1,0.3,0.3,0.2l0.7-0.1c0.2,0,0.3-0.1,0.3-0.2c-0.1-0.7-0.2-2.2-0.2-3.5c0-0.8,0-2.9,0.1-3.5c0-0.2-0.1-0.3-0.2-0.3
		l-0.8-0.1c-0.1,0-0.3,0.1-0.3,0.3c0,0.6-0.3,1.4-0.5,1.8c-0.4,0.8-0.8,1-1.5,1.2c-0.4,0.1-2.7,0.2-3.6,0.2l0.1-9.3l4.9,0.1
		c0.9,0,1.8,0.4,2.4,0.8c0.8,0.4,3.4,3.4,3.5,3.6c0.1,0.2,0.2,0.2,0.3,0.2l0.6-0.3c0.1-0.1,0.2-0.2,0.1-0.4
		c-0.1-0.3-1.3-4.7-1.5-5.1c0-0.1-0.1-0.2-0.3-0.2c-0.2,0-0.8,0-1.3,0c-1.4,0-8.8,0.1-10.2,0.1h-0.9c-2.6,0-3.8-0.1-4.5-0.1
		c-0.2,0-0.2,0.1-0.2,0.2v0.8c0,0.2,0.1,0.2,0.2,0.2h1.2c1,0,1.3,0.3,1.4,1.1c0.1,0.4,0.1,4.4,0.1,7v10.8c0,1.2-0.1,1.4-1.6,1.4
		h-1.1c-0.3,0-0.3,0.1-0.3,0.3v0.8c0,0.2,0.1,0.3,0.3,0.3c0.6,0,1.7-0.1,4.1-0.1c10.7,0,13.2,0.1,13.5,0.1c0.4,0,0.6-0.2,0.7-0.5
		l1.5-4.8c0.1-0.2,0-0.3-0.1-0.3L213.3,161.5z M102.8,144.5c-0.4,0-1.2,0.1-3.1,0.1c-2.2,0-3.2-0.1-3.6-0.1c-0.3,0-0.3,0.1-0.3,0.3
		v0.7c0,0.2,0,0.3,0.2,0.3h1c0.8,0,1.5,0.4,1.7,1.2c0.2,0.5,0.3,3.7,0.4,4.9c0.1,1.6,0.1,3.2,0.1,6v3.3h-0.1c-0.5-0.6-5.5-6.9-6-7.4
		c-0.6-0.9-6.9-8.8-7.2-9.1c-0.2-0.2-0.4-0.3-0.8-0.3c-0.2,0-0.5,0-0.9,0c-0.4,0-0.9,0.1-1.4,0.1c-1.4,0-2.3,0-2.8,0
		c-0.6,0-0.8-0.1-1-0.1c-0.1,0-0.2,0.1-0.2,0.2v0.9c0,0.1,0.1,0.2,0.2,0.2h1c1.4,0,2.5,1.5,2.5,3.4v4.1c0,5.1-0.2,9.6-0.2,10.2
		c-0.2,2-0.6,2.7-1.4,2.7h-1.1c-0.1,0-0.2,0.1-0.2,0.2v0.8c0,0.2,0.1,0.3,0.2,0.3c0.3,0,2.5-0.1,3.3-0.1c1.2,0,3.1,0.1,3.5,0.1
		c0.3,0,0.3-0.1,0.3-0.3v-0.7c0-0.2,0-0.3-0.3-0.3h-0.8c-1.2,0-1.5-0.8-1.6-2.4c-0.1-1-0.3-5.5-0.3-10.9v-3.9h0.2
		c0.4,0.4,5.5,6.8,6,7.3c0.4,0.5,2.9,3.5,5.1,6.3c2,2.4,3.7,4.4,4,4.7c0.3,0.3,0.6,0.5,1.1,0.5c0.4,0,0.4-0.4,0.4-0.9v-8.4
		c0-3.3,0.3-8.6,0.5-10.8c0.1-1.2,0.4-1.7,1.1-1.7h0.9c0.1,0,0.2-0.1,0.2-0.3v-0.7C103.1,144.7,103,144.5,102.8,144.5z M359.5,143.8
		c-0.1-0.4-0.1-0.5-0.3-0.5c-0.2,0-0.3,0.1-0.6,0.3c-0.5,0.4-1.7,0.8-2.3,0.8c-1.5,0.1-2.8,0.2-6.3,0.2h-1.7c-3.1,0-4.5-0.1-6.2-0.2
		c-0.9,0-1.5-0.2-2.2-0.8c-0.2-0.2-0.3-0.3-0.5-0.3c-0.1,0-0.3,0.1-0.4,0.6c-0.1,0.4-1.2,4.7-1.5,5.9c0,0.2,0,0.3,0.1,0.3l0.6,0.2
		c0.2,0.1,0.3-0.1,0.4-0.2c0.6-1.1,1.8-3.2,2.8-3.6c1.3-0.4,3.7-0.4,4.7-0.4h0.9v8c0,0.6,0,10.4-0.1,11.3c0,0.5-0.4,0.9-1.1,0.9H344
		c-0.1,0-0.2,0.1-0.2,0.3v0.7c0,0.2,0.1,0.3,0.3,0.3c0.4,0,1.8-0.1,5.1-0.1c3.5,0,4.5,0.1,4.8,0.1c0.3,0,0.3-0.1,0.3-0.3v-0.7
		c0-0.2-0.1-0.3-0.2-0.3h-1.9c-0.8,0-1.1-0.6-1.1-3.1V146h0.9c1.2,0,4,0.1,4.9,0.6c0.9,0.6,2.1,2.7,2.5,3.6c0.1,0.2,0.2,0.3,0.3,0.3
		l0.6-0.2c0.1,0,0.2-0.1,0.1-0.3C360.2,148.3,359.6,144.4,359.5,143.8z M60.1,144.5c-0.3,0-1.3,0.1-3.3,0.1c-2.1,0-3.6-0.1-3.9-0.1
		c-0.2,0-0.3,0.1-0.3,0.3v0.8c0,0.1,0.1,0.2,0.3,0.2h1.2c0.7,0,1.2,0.6,1.3,1.4c0.1,0.7,0.4,3.6,0.4,6.1v5.8c0,2.3-0.6,4.2-1.9,5.4
		c-1,1-2.8,1.5-4.3,1.5c-1.5,0-3.3-0.5-4.4-2c-0.8-1-1-2.5-1.1-4c-0.1-1-0.1-3.3-0.1-4.9v-4c0-1.9,0.1-3.8,0.1-4.2
		c0-0.7,0.6-1.2,1.6-1.2h1.3c0.2,0,0.3-0.1,0.3-0.3v-0.8c0-0.2-0.1-0.2-0.3-0.2c-0.4,0-1.9,0.1-4.6,0.1c-3.1,0-4.6-0.1-4.9-0.1
		c-0.3,0-0.3,0.1-0.3,0.3v0.7c0,0.2,0.1,0.3,0.3,0.3h1.5c0.8,0,1.1,0.5,1.1,1.6v7.6c0,4.2,0.1,6.3,0.6,7.7c0.6,2,1.9,3.5,3.8,4.3
		c1.2,0.5,3.1,0.8,4.6,0.8c2.4,0,4.5-0.8,5.8-2c1.7-1.5,2.5-3.5,2.7-6.1c0.1-1.3,0.2-6.8,0.2-7.3c0-0.4,0-4.9,0.1-5.3
		c0.1-0.4,0.2-1.2,1.3-1.2h1.2c0.2,0,0.2-0.1,0.2-0.3v-0.7C60.5,144.6,60.4,144.5,60.1,144.5z M282,153.6c-1.3-0.4-3.1-1.2-3.9-2
		c-0.8-0.8-0.9-1.8-0.9-2.9c0-1.2,1-3.2,3.6-3.2c1.5,0,2.5,0.4,3.3,1.3c1.2,1.2,1.7,2.5,2,3.4c0.1,0.2,0.2,0.2,0.3,0.2l0.5-0.2
		c0.1,0,0.2-0.1,0.2-0.2c0-0.3-0.5-4.8-0.5-5.3c0-0.3-0.1-0.5-0.3-0.5c-0.2,0-0.3,0.1-0.4,0.2l-0.4,0.4c-0.2,0.2-0.4,0.2-0.7,0.1
		c-0.6-0.3-1.9-0.8-4-0.8c-1.9,0-3.3,0.4-4.5,1.5c-1.5,1.2-2.2,2.7-2.2,4.5c0,2,0.5,3.6,1.6,4.6c1.5,1.4,3.6,2.3,4.7,2.7
		c3.4,1.3,4.7,2.2,4.7,5.2c0,2.7-2.4,3.7-4.2,3.7c-1.6,0-3.3-0.8-4.2-2.3c-0.9-1.4-1.2-2.6-1.2-3.6c0-0.2-0.1-0.3-0.2-0.3l-0.7-0.1
		c-0.1,0-0.2,0.1-0.2,0.3c-0.1,0.4-0.5,5.6-0.6,6c0,0.3,0.1,0.5,0.4,0.5c0.3,0,0.4-0.1,0.6-0.4c0.2-0.3,0.3-0.6,0.5-0.6
		c0.2,0,0.4,0.1,0.8,0.4c1.3,1,2.8,1.5,5.4,1.5c4.2,0,6.8-3.2,6.8-7.1c0-2.1-0.6-3.5-1.6-4.6C285.4,154.8,283.9,154.2,282,153.6z
		 M401.9,144.5c-0.3,0-1,0.1-3.1,0.1c-2.2,0-3.6-0.1-3.9-0.1c-0.1,0-0.2,0.1-0.2,0.2v0.8c0,0.2,0.1,0.3,0.3,0.3h0.8
		c1,0,1.2,0.6,1.1,1.2c-0.1,0.8-4.2,7.5-5.3,9.2c-0.9-1.8-4.7-8.9-4.8-9.5c-0.1-0.7,0.2-0.9,0.9-0.9h0.8c0.2,0,0.3-0.1,0.3-0.3v-0.7
		c0-0.2-0.1-0.2-0.3-0.2c-0.3,0-1.5,0.1-4.7,0.1c-2.4,0-4-0.1-4.2-0.1c-0.2,0-0.3,0.1-0.3,0.2v0.9c0,0.2,0.1,0.2,0.3,0.2h0.6
		c0.5,0,1.2,0.3,1.6,0.7c0.9,1.1,6.1,10.3,6.6,11.3v1.5c0,3-0.1,5.5-0.1,6c0,0.5-0.3,0.8-1.1,0.8h-1.3c-0.2,0-0.2,0.1-0.2,0.3v0.7
		c0,0.2,0.1,0.3,0.2,0.3c0.3,0,1.3-0.1,4.4-0.1c2.9,0,4.2,0.1,4.5,0.1c0.2,0,0.2-0.1,0.2-0.3v-0.7c0-0.1-0.1-0.2-0.2-0.2h-1.1
		c-0.6,0-1.2-0.1-1.2-1.1c0-0.4-0.1-2.5-0.1-3.7v-3.9c1.2-2.1,6.5-10.3,7-10.9c0.5-0.5,1.3-0.7,1.7-0.7h0.7c0.2,0,0.3-0.1,0.3-0.3
		v-0.7C402.2,144.6,402.1,144.5,401.9,144.5z M318.3,166.1h-1.3c-0.8,0-1.3-0.1-1.3-1.2c0-0.4-0.1-7.7-0.1-8v-2.5
		c0-0.4,0.1-7.4,0.1-7.7c0-0.6,0.5-0.9,1.2-0.9h1.2c0.1,0,0.3-0.1,0.3-0.3v-0.7c0-0.2-0.1-0.3-0.3-0.3c-0.4,0-1.5,0.1-4.5,0.1
		c-3.1,0-4.8-0.1-5.2-0.1c-0.1,0-0.2,0.1-0.2,0.2v0.8c0,0.2,0.1,0.2,0.3,0.2h1.7c0.9,0,1.2,0.3,1.3,1.1c0,0.4,0.1,6.2,0.1,6.9v2.2
		c0,1.7-0.1,8.6-0.1,9.1c-0.1,0.9-0.8,0.9-1.5,0.9h-1.3c-0.2,0-0.3,0.1-0.3,0.2v0.9c0,0.2,0.1,0.2,0.3,0.2c0.3,0,1.7-0.1,4.9-0.1
		c3,0,4.3,0.1,4.7,0.1c0.2,0,0.3-0.1,0.3-0.3v-0.8C318.5,166.2,318.4,166.1,318.3,166.1z M254.7,166.2c-0.8,0-1.7-0.1-2.3-0.6
		c-0.5-0.4-2.5-3.3-2.7-3.6c-0.3-0.4-2.2-3.4-2.6-3.9c-0.4-0.6-1-1.2-1.9-1.5v-0.1c3.5-0.6,6-2.2,6-6.3c0-1.2-0.6-2.6-1.7-3.6
		c-1.3-1.2-3.3-2-5.8-2c-1,0-3.9,0.1-5.7,0.1c-3.1,0-4.2-0.1-4.4-0.1c-0.2,0-0.2,0.1-0.2,0.2v0.9c0,0.1,0.1,0.2,0.2,0.2h1.2
		c0.6,0,1,0.5,1,1.6v8.4c0,3,0,6-0.1,9.2c0,0.9-0.5,1.1-1.2,1.1h-1.1c-0.1,0-0.2,0.1-0.2,0.3v0.7c0,0.2,0.1,0.3,0.3,0.3
		c0.3,0,1.1-0.1,4.2-0.1c3.3,0,4,0.1,4.4,0.1c0.3,0,0.4-0.1,0.4-0.3v-0.8c0-0.1-0.1-0.2-0.3-0.2h-1.6c-0.5,0-0.7-0.6-0.8-1.2
		c-0.1-0.5-0.1-4.1-0.1-6v-1.7c0.4,0,0.9-0.1,1-0.1c1.3,0,2.1,0.9,2.9,2c0.5,0.7,1.4,2.2,1.7,2.8c0.3,0.5,1.5,2.8,2.1,3.7
		c0.4,0.7,1,1.5,1.4,1.8c0.7,0,1.9-0.1,2.8-0.1c2,0,2.9,0.1,3.1,0.1c0.2,0,0.3-0.1,0.3-0.3v-0.7
		C254.9,166.3,254.9,166.2,254.7,166.2z M240.8,156.1C240.8,156.1,240.8,156.1,240.8,156.1c-0.1,0-0.2,0-0.2,0
		c-0.4,0-0.8-0.1-1.2-0.1l0.1-9.2c0-0.4,0.1-0.8,0.4-0.9c0.2-0.1,0.6-0.2,1-0.2c0.1,0,0.2,0,0.4,0c1.6,0,3.1,0.4,4.2,1.4
		c0.8,0.7,1.4,2.1,1.4,3.6C246.8,152.1,245.8,156.1,240.8,156.1z"/>
</g>
</svg>
