<?xml version="1.0" encoding="utf-8"?>
<!-- Generator: Adobe Illustrator 21.0.0, SVG Export Plug-In . SVG Version: 6.00 Build 0)  -->
<svg version="1.1" id="logo" xmlns="http://www.w3.org/2000/svg" xmlns:xlink="http://www.w3.org/1999/xlink" x="0px" y="0px"
	 viewBox="0 0 405 144" style="enable-background:new 0 0 405 144;" xml:space="preserve">
<style type="text/css">
	.st0{fill:#FFFFFF;}
</style>
<title>Artboard 3</title>
<path class="st0" d="M5,6.6v49.2h18.1V26.9h23.6v88.6H27.2v17.8h68.5v-17.8H76.3V26.9h24.1c0,0,0,13.4,0,15h17.9V6.6H5z"/>
<path class="st0" d="M154,47v16.7h13.9v43.6L167,108c-6.1,4.5-11.9,6.8-17.1,6.8c-4.2,0-7.3-1.1-9-3.2s-2.5-5.5-2.5-10.5V47h-38.1
	v16.7h13.5v44.7c0,8.3,2.3,14.7,6.8,19.2s10.9,6.7,19,6.7c8.4,0,16.9-2.9,25.1-8.6l3.2-2.2v9.5h34.7v-16.6h-10V47H154z"/>
<path class="st0" d="M228.1,14.2L228.1,14.2c-5.5,5.9-8.2,13.5-8.2,22.4V47h-12.1v16.7h12.1v52.6h-12.1V133h50.9v-16.6h-14.2V63.7
	h14.1V47h-14.1V35.1c0-12,5.2-14.5,9.5-14.5c3.8,0,6.9,2.8,9,8.4l16.9-13.2c-5.7-6.8-14.8-10.3-27.1-10.3
	C241.8,5.4,233.5,8.4,228.1,14.2z"/>
<path class="st0" d="M292.4,19.6l-17.1,12.3V47h-11.5v16.7h11.5V113c0,14.6,6.9,21.4,21.6,21.4c6.7-0.1,13.4-1.4,19.6-3.9v-15.8
	c-2.3,0.7-4.6,1.1-7,1.2c-4,0-6.5-0.9-7.9-2.6c-1.2-1.6-1.8-4.3-1.8-8.4V63.8h16.6V47h-16.5V14.2L292.4,19.6z"/>
<path class="st0" d="M326.6,52.4L326.6,52.4c-5.8,4.9-8.7,10.9-8.7,17.9c-0.1,7.2,3.3,14,9.2,18.1c6.3,4.7,16.7,8.2,31,10.5
	c7.3,1.2,12.1,2.5,14.6,3.9c2.9,1.5,4.3,3.8,4.3,6.6c0,3-1.5,5.5-4.5,7.4c-2.8,1.8-6.8,2.6-11.7,2.6c-5.1,0.2-10.2-1.2-14.5-4
	c-3.5-2.2-5.7-5.8-6.2-9.9h-18.7V134h18.5v-6.4l2.2,2.4c3.7,4.1,10.8,6.1,21.1,6.1c11.2,0,19.9-2.7,25.9-8.1
	c5.9-5.2,9.2-12.8,9-20.7c0.2-5.5-1.5-10.9-4.7-15.3c-3.2-4.2-7.6-7.4-12.7-9.1c-5.4-1.9-13.8-3.8-24.8-5.7
	c-7.2-1.3-11.6-2.4-13.5-3.3c-2-0.9-3.2-2.9-3.2-5.1c0-5.4,4.6-8.1,13.7-8.1c11.3,0,18.2,3.2,20.5,9.4h18.5V46.4h-18v3.7l-1.7-0.7
	c-7.1-2.9-14.7-4.4-22.4-4.4C340.3,45,332.4,47.5,326.6,52.4z"/>
</svg>
